<?xml version="1.0" encoding="UTF-8"?>
<svg width="114px" height="30px" viewBox="0 0 114 30" version="1.1" xmlns="http://www.w3.org/2000/svg" xmlns:xlink="http://www.w3.org/1999/xlink">
    <!-- Generator: Sketch 49 (51002) - http://www.bohemiancoding.com/sketch -->
    <title>Group</title>
    <desc>Created with Sketch.</desc>
    <defs></defs>
    <g id="Page-1" stroke="none" stroke-width="1" fill="none" fill-rule="evenodd">
        <g id="Af-Landin-messager-web" transform="translate(-30.000000, -10.000000)" fill="#1481FA">
            <g id="Header">
                <g id="Group" transform="translate(30.000000, 10.000000)">
                    <g id="Logo" fill-rule="nonzero">
                        <polygon id="Line" points="1.44042706 24.9595721 0.924548666 25.4769673 1.95630547 26.5117577 2.47218386 25.9943625 7.6309678 20.8204104 8.14684619 20.3030151 7.11508939 19.2682247 6.599211 19.78562"></polygon>
                        <path d="M0,27.4390244 C0,28.8534122 1.14322647,30 2.55346779,30 L2.55346779,28.5365854 C1.94907865,28.5365854 1.45912445,28.0451906 1.45912445,27.4390244 C1.45912445,27.1144897 1.57418815,26.8950614 1.95789396,26.5102088 L0.926112189,25.4754435 C0.293125189,26.1103223 0,26.6693166 0,27.4390244 Z" id="Oval-7"></path>
                        <path d="M16.4151501,27.4390244 L14.9560256,27.4390244 C14.9560256,28.0451906 14.4660714,28.5365854 13.8616823,28.5365854 L13.8616823,30 C15.2719236,30 16.4151501,28.8534122 16.4151501,27.4390244 Z" id="Oval-7"></path>
                        <path d="M16.4151501,17.6527543 L16.4151501,17.9268293 L16.4151501,26.7073171 L16.4151501,27.4390244 L14.9560256,27.4390244 L14.9560256,26.7073171 L14.9560256,17.9268293 L14.9560256,17.6527543 C13.1838931,16.7800463 12.184013,16.1790086 11.3260953,15.3978141 C10.1135826,14.2937361 9.48430894,12.9834768 9.48430894,11.3414634 C9.48430894,9.38255417 10.3950473,7.99434184 12.0348232,7.24632903 C12.089798,7.22125133 12.1462508,7.20358487 12.2030652,7.19291007 C12.4130331,7.04083496 12.6709466,6.95121951 12.9497295,6.95121951 C13.6548502,6.95121951 14.2264634,7.52451343 14.2264634,8.23170732 C14.2264634,8.9389012 13.6548502,9.51219512 12.9497295,9.51219512 C12.5346089,9.51219512 12.1657613,9.31349462 11.9325812,9.0057511 C11.2758901,9.53295054 10.9434334,10.2892674 10.9434334,11.3414634 C10.9434334,13.551938 12.1965184,14.69296 16.0028092,16.5362034 L15.3683666,16.5362034 C19.1746573,14.69296 20.4277423,13.551938 20.4277423,11.3414634 C20.4277423,10.2890598 20.0951885,9.53289589 19.4385791,9.00577138 C19.2053982,9.31350335 18.8365577,9.51219512 18.4214462,9.51219512 C17.7163256,9.51219512 17.1447123,8.9389012 17.1447123,8.23170732 C17.1447123,7.52451343 17.7163256,6.95121951 18.4214462,6.95121951 C18.7046618,6.95121951 18.966339,7.04370736 19.1780894,7.20021125 C19.2392641,7.21083268 19.3000821,7.22951996 19.3591478,7.25679038 C20.9848923,8.00739124 21.8868668,9.39211231 21.8868668,11.3414634 C21.8868668,12.9834768 21.2575931,14.2937361 20.0450805,15.3978141 C19.1871627,16.1790086 18.1872827,16.7800463 16.4151501,17.6527543 Z" id="Combined-Shape"></path>
                        <polygon id="Line" points="13.1321201 30 13.8616823 30 13.8616823 28.5365854 13.1321201 28.5365854 2.9182489 28.5365854 2.18868668 28.5365854 2.18868668 30 2.9182489 30"></polygon>
                        <path d="M27.3585835,11.7073171 C27.3585835,5.24154439 22.1324053,0 15.6855879,0 C9.2387704,0 4.01259224,5.24154439 4.01259224,11.7073171 C4.01259224,18.1730898 9.2387704,23.4146341 15.6855879,23.4146341 C22.1324053,23.4146341 27.3585835,18.1730898 27.3585835,11.7073171 Z M5.4717167,11.7073171 C5.4717167,6.04976598 10.0446226,1.46341463 15.6855879,1.46341463 C21.3265531,1.46341463 25.899459,6.04976598 25.899459,11.7073171 C25.899459,17.3648682 21.3265531,21.9512195 15.6855879,21.9512195 C10.0446226,21.9512195 5.4717167,17.3648682 5.4717167,11.7073171 Z" id="Oval-6"></path>
                    </g>
                    <path d="M41.8125,18 L40.7460938,15.2753906 L37.3125,15.2753906 L36.2578125,18 L35.25,18 L38.6367188,9.3984375 L39.4746094,9.3984375 L42.84375,18 L41.8125,18 Z M40.4355469,14.3789062 L39.4394531,11.7246094 C39.3105462,11.3886702 39.1777351,10.9765649 39.0410156,10.4882812 C38.9550777,10.8632831 38.8320321,11.2753884 38.671875,11.7246094 L37.6640625,14.3789062 L40.4355469,14.3789062 Z M48.8632812,11.4726562 C49.7070355,11.4726562 50.3623024,11.7607393 50.8291016,12.3369141 C51.2959008,12.9130888 51.5292969,13.7285104 51.5292969,14.7832031 C51.5292969,15.8378959 51.2939477,16.6572236 50.8232422,17.2412109 C50.3525367,17.8251982 49.6992229,18.1171875 48.8632812,18.1171875 C48.4453104,18.1171875 48.0634783,18.0400398 47.7177734,17.8857422 C47.3720686,17.7314445 47.0820324,17.4941422 46.8476562,17.1738281 L46.7773438,17.1738281 L46.5722656,18 L45.875,18 L45.875,8.8828125 L46.8476562,8.8828125 L46.8476562,11.0976562 C46.8476562,11.5937525 46.8320314,12.0390605 46.8007812,12.4335938 L46.8476562,12.4335938 C47.3007835,11.7929655 47.9726518,11.4726562 48.8632812,11.4726562 Z M48.7226562,12.2871094 C48.0585904,12.2871094 47.5800796,12.4775372 47.2871094,12.8583984 C46.9941392,13.2392597 46.8476562,13.8808549 46.8476562,14.7832031 C46.8476562,15.6855514 46.9980454,16.3310527 47.2988281,16.7197266 C47.5996109,17.1084004 48.0820279,17.3027344 48.7460938,17.3027344 C49.343753,17.3027344 49.789061,17.0849631 50.0820312,16.6494141 C50.3750015,16.213865 50.5214844,15.5878947 50.5214844,14.7714844 C50.5214844,13.9355427 50.3750015,13.3125021 50.0820312,12.9023438 C49.789061,12.4921854 49.3359406,12.2871094 48.7226562,12.2871094 Z M56.2011719,18 L55.2285156,18 L55.2285156,8.8828125 L56.2011719,8.8828125 L56.2011719,18 Z M62.9765625,18.1171875 C62.027339,18.1171875 61.2783231,17.8281279 60.7294922,17.25 C60.1806613,16.6718721 59.90625,15.8691458 59.90625,14.8417969 C59.90625,13.8066354 60.1611303,12.984378 60.6708984,12.375 C61.1806666,11.765622 61.8652301,11.4609375 62.7246094,11.4609375 C63.5293009,11.4609375 64.1660133,11.7255833 64.6347656,12.2548828 C65.103518,12.7841823 65.3378906,13.4824175 65.3378906,14.3496094 L65.3378906,14.9648438 L60.9140625,14.9648438 C60.9335938,15.7187538 61.1240216,16.2910137 61.4853516,16.6816406 C61.8466815,17.0722676 62.3554655,17.2675781 63.0117188,17.2675781 C63.7031285,17.2675781 64.3867154,17.1230483 65.0625,16.8339844 L65.0625,17.7011719 C64.7187483,17.8496101 64.3935562,17.9560544 64.0869141,18.0205078 C63.7802719,18.0849613 63.4101584,18.1171875 62.9765625,18.1171875 Z M62.7128906,12.2753906 C62.197263,12.2753906 61.7861343,12.4433577 61.4794922,12.7792969 C61.17285,13.1152361 60.9921878,13.5800752 60.9375,14.1738281 L64.2949219,14.1738281 C64.2949219,13.5605438 64.1582045,13.0908219 63.8847656,12.7646484 C63.6113268,12.4384749 63.2207057,12.2753906 62.7128906,12.2753906 Z M70.1386719,18 L69.1425781,18 L69.1425781,9.43359375 L73.9179688,9.43359375 L73.9179688,10.3183594 L70.1386719,10.3183594 L70.1386719,13.453125 L73.6894531,13.453125 L73.6894531,14.3378906 L70.1386719,14.3378906 L70.1386719,18 Z M78.1621094,18 L77.1894531,18 L77.1894531,11.578125 L78.1621094,11.578125 L78.1621094,18 Z M77.1074219,9.83789062 C77.1074219,9.61523326 77.1621088,9.45214896 77.2714844,9.34863281 C77.3808599,9.24511667 77.5175773,9.19335938 77.6816406,9.19335938 C77.8378914,9.19335938 77.9726557,9.24609322 78.0859375,9.3515625 C78.1992193,9.45703178 78.2558594,9.61913953 78.2558594,9.83789062 C78.2558594,10.0566417 78.1992193,10.219726 78.0859375,10.3271484 C77.9726557,10.4345708 77.8378914,10.4882812 77.6816406,10.4882812 C77.5175773,10.4882812 77.3808599,10.4345708 77.2714844,10.3271484 C77.1621088,10.219726 77.1074219,10.0566417 77.1074219,9.83789062 Z M86.6191406,18 L86.6191406,13.8457031 C86.6191406,13.322263 86.5000012,12.9316419 86.2617188,12.6738281 C86.0234363,12.4160143 85.6503932,12.2871094 85.1425781,12.2871094 C84.4706998,12.2871094 83.9785172,12.4687482 83.6660156,12.8320312 C83.3535141,13.1953143 83.1972656,13.7949177 83.1972656,14.6308594 L83.1972656,18 L82.2246094,18 L82.2246094,11.578125 L83.015625,11.578125 L83.1738281,12.4570312 L83.2207031,12.4570312 C83.4199229,12.1406234 83.699217,11.8955087 84.0585938,11.7216797 C84.4179705,11.5478507 84.8183572,11.4609375 85.2597656,11.4609375 C86.033207,11.4609375 86.6152324,11.6474591 87.0058594,12.0205078 C87.3964863,12.3935566 87.5917969,12.9902303 87.5917969,13.8105469 L87.5917969,18 L86.6191406,18 Z M95.9609375,17.1386719 L95.9082031,17.1386719 C95.4589821,17.7910189 94.7871138,18.1171875 93.8925781,18.1171875 C93.0527302,18.1171875 92.3994164,17.830081 91.9326172,17.2558594 C91.465818,16.6816378 91.2324219,15.8652397 91.2324219,14.8066406 C91.2324219,13.7480416 91.4667945,12.9257842 91.9355469,12.3398438 C92.4042992,11.7539033 93.0566364,11.4609375 93.8925781,11.4609375 C94.7636762,11.4609375 95.4316383,11.7773406 95.8964844,12.4101562 L95.9726562,12.4101562 L95.9316406,11.9472656 L95.9082031,11.4960938 L95.9082031,8.8828125 L96.8808594,8.8828125 L96.8808594,18 L96.0898438,18 L95.9609375,17.1386719 Z M94.015625,17.3027344 C94.6796908,17.3027344 95.1611313,17.1220721 95.4599609,16.7607422 C95.7587906,16.3994123 95.9082031,15.8164103 95.9082031,15.0117188 L95.9082031,14.8066406 C95.9082031,13.8964798 95.7568375,13.2470723 95.4541016,12.8583984 C95.1513657,12.4697246 94.6679721,12.2753906 94.0039062,12.2753906 C93.4335909,12.2753906 92.9970718,12.4970681 92.6943359,12.9404297 C92.3916,13.3837913 92.2402344,14.0097616 92.2402344,14.8183594 C92.2402344,15.638676 92.3906235,16.2578104 92.6914062,16.6757812 C92.992189,17.0937521 93.4335908,17.3027344 94.015625,17.3027344 Z M103.65625,18.1171875 C102.707027,18.1171875 101.958011,17.8281279 101.40918,17.25 C100.860349,16.6718721 100.585938,15.8691458 100.585938,14.8417969 C100.585938,13.8066354 100.840818,12.984378 101.350586,12.375 C101.860354,11.765622 102.544918,11.4609375 103.404297,11.4609375 C104.208988,11.4609375 104.845701,11.7255833 105.314453,12.2548828 C105.783205,12.7841823 106.017578,13.4824175 106.017578,14.3496094 L106.017578,14.9648438 L101.59375,14.9648438 C101.613281,15.7187538 101.803709,16.2910137 102.165039,16.6816406 C102.526369,17.0722676 103.035153,17.2675781 103.691406,17.2675781 C104.382816,17.2675781 105.066403,17.1230483 105.742188,16.8339844 L105.742188,17.7011719 C105.398436,17.8496101 105.073244,17.9560544 104.766602,18.0205078 C104.459959,18.0849613 104.089846,18.1171875 103.65625,18.1171875 Z M103.392578,12.2753906 C102.876951,12.2753906 102.465822,12.4433577 102.15918,12.7792969 C101.852538,13.1152361 101.671875,13.5800752 101.617188,14.1738281 L104.974609,14.1738281 C104.974609,13.5605438 104.837892,13.0908219 104.564453,12.7646484 C104.291014,12.4384749 103.900393,12.2753906 103.392578,12.2753906 Z M112.605469,11.4609375 C112.890626,11.4609375 113.146483,11.4843748 113.373047,11.53125 L113.238281,12.4335938 C112.972655,12.3749997 112.738282,12.3457031 112.535156,12.3457031 C112.015622,12.3457031 111.571291,12.5566385 111.202148,12.9785156 C110.833006,13.4003927 110.648438,13.9257781 110.648438,14.5546875 L110.648438,18 L109.675781,18 L109.675781,11.578125 L110.478516,11.578125 L110.589844,12.7675781 L110.636719,12.7675781 C110.875001,12.3496073 111.162108,12.0273449 111.498047,11.8007812 C111.833986,11.5742176 112.203123,11.4609375 112.605469,11.4609375 Z" id="AbleFinder"></path>
                </g>
            </g>
        </g>
    </g>
</svg>